<svg width="16" height="16" viewBox="0 0 16 16" fill="none" xmlns="http://www.w3.org/2000/svg">
<path d="M2.42513 8.22889L4.83068 5.34711C5.07452 5.03362 5.19643 4.87687 5.26032 4.70107C5.31685 4.54551 5.34028 4.37985 5.32904 4.21473C5.31629 4.02811 5.24251 3.84373 5.09502 3.47498L4.53238 2.0684C4.31412 1.52269 4.20495 1.24984 4.01669 1.07099C3.85084 0.913396 3.64287 0.807091 3.41803 0.764864C3.1628 0.716944 2.87772 0.788218 2.30748 0.930766L0.750039 1.32019C0.750039 9.23684 6.29147 14.7785 14.2083 14.7785L14.5976 13.2208C14.7401 12.6507 14.8114 12.3655 14.7635 12.1104C14.7212 11.8854 14.6149 11.6775 14.4573 11.5116C14.2785 11.3234 14.0056 11.2142 13.4599 10.9959L12.2047 10.4938C11.784 10.3255 11.5737 10.2414 11.364 10.235C11.1786 10.2293 10.9945 10.267 10.8264 10.3453C10.6361 10.4338 10.4759 10.5941 10.1556 10.9145L7.71219 13.3194" stroke="currentColor" stroke-width="1.5" stroke-linecap="round" stroke-linejoin="round"/>
</svg>
