<svg width="18" height="16" viewBox="0 0 18 16" fill="none" xmlns="http://www.w3.org/2000/svg">
<path fill-rule="evenodd" clip-rule="evenodd" d="M1.23244 6.90067C6.06328 4.64981 9.27924 3.15417 10.8941 2.42856C15.4903 0.370208 16.4565 0.0148083 17.0776 0C17.2156 0 17.5193 0.0296168 17.7263 0.207316C17.892 0.355399 17.9334 0.547908 17.961 0.695991C17.9886 0.844074 18.0162 1.15505 17.9886 1.39198C17.7401 4.20556 16.6635 11.0322 16.1114 14.1715C15.8768 15.5043 15.4213 15.9485 14.9796 15.993C14.0135 16.0818 13.2819 15.3118 12.3572 14.6602C10.8941 13.6384 10.0798 13.0017 8.65813 11.9947C7.01565 10.8397 8.07843 10.2029 9.017 9.16634C9.26544 8.89979 13.5028 4.75347 13.5856 4.38326C13.5994 4.33883 13.5994 4.16113 13.5028 4.07228C13.4062 3.98343 13.2681 4.01305 13.1577 4.04267C13.0059 4.07228 10.6871 5.73081 6.1737 9.00345C5.51118 9.49212 4.91768 9.72905 4.37939 9.71425C3.78588 9.69944 2.65409 9.35885 1.79834 9.06268C0.763154 8.70728 -0.0649904 8.51477 0.00402163 7.89282C0.0454289 7.56704 0.459501 7.24126 1.23244 6.90067Z" fill="url(#paint0_linear_2031_177)"/>
<defs>
<linearGradient id="paint0_linear_2031_177" x1="8.99251" y1="0" x2="8.99251" y2="15.8734" gradientUnits="userSpaceOnUse">
<stop stop-color="#2AABEE"/>
<stop offset="1" stop-color="#229ED9"/>
</linearGradient>
</defs>
</svg>
